<svg width="604" height="169" viewBox="0 0 604 169" fill="none" xmlns="http://www.w3.org/2000/svg">
<path fill-rule="evenodd" clip-rule="evenodd" d="M67.1805 1.12488C58.3205 3.16088 48.6155 7.06389 40.4315 11.8839C31.6225 17.0709 17.4805 30.8869 12.4665 39.2039C-8.36652 73.7609 -2.63254 117.602 26.2535 144.624C34.4675 152.307 39.9995 156.053 50.0075 160.706C62.0075 166.286 71.6085 168.191 87.1805 168.082C102.404 167.976 111.384 165.955 124.204 159.75C145.633 149.377 162.602 128.949 168.871 105.978C171.875 94.9679 171.893 73.4999 168.906 62.5679C161.375 35.0009 140.401 12.9329 112.924 3.6659C103.917 0.628901 102.045 0.355904 88.1805 0.0629037C77.9495 -0.153096 71.2725 0.183885 67.1805 1.12488ZM106.18 5.65391C110.58 6.76991 118.23 9.69089 123.18 12.1429C139.619 20.2869 151.067 31.7649 159.148 48.2039C164.998 60.1039 166.694 66.8409 167.38 80.9029C167.859 90.7329 167.605 94.0949 165.789 101.954C157.048 139.782 122.457 166.138 83.6805 164.518L76.1805 164.204L76.2075 152.704C76.2215 146.379 76.8225 138.234 77.5425 134.603L78.8505 128.002L87.1425 124.777C105.983 117.448 116.932 105.458 121.159 87.5289C123.426 77.9159 122.909 50.5989 120.413 48.1039C119.5 47.1899 104.491 52.7019 96.1945 56.9969C87.3565 61.5729 74.1255 73.7129 71.8025 79.3779L70.5015 82.5509L64.6955 77.8779C59.6665 73.8299 45.4435 65.7039 43.3865 65.7039C42.9985 65.7039 42.6805 66.3379 42.6805 67.1119C42.6805 67.8859 46.5405 70.6859 51.2585 73.3339C55.9765 75.9829 61.5555 80.0149 63.6575 82.2949L67.4785 86.4399L66.9605 96.8219C66.3665 108.738 67.2245 112.885 71.9075 120.724L75.1805 126.204L73.9705 133.204C73.3045 137.054 72.4465 145.512 72.0645 151.999L71.3685 163.794L68.2745 163.127C49.7465 159.129 30.8365 147.061 19.9425 132.281C-2.27454 102.14 -1.56253 61.6939 21.6895 32.9789C33.6755 18.1769 53.7075 6.81291 73.2115 3.74891C81.7265 2.41191 96.8505 3.28491 106.18 5.65391ZM83.8785 17.9539C84.1005 21.8199 84.5765 23.2039 85.6805 23.2039C86.7845 23.2039 87.2605 21.8199 87.4825 17.9539C87.7575 13.1879 87.5915 12.7039 85.6805 12.7039C83.7695 12.7039 83.6035 13.1879 83.8785 17.9539ZM47.0515 23.1789C46.3295 25.0619 50.3885 31.7039 52.2625 31.7039C54.3635 31.7039 53.9935 29.6279 51.1445 25.4359C48.3275 21.2909 47.8725 21.0399 47.0515 23.1789ZM119.93 26.2019C117.206 30.4079 117.103 31.7039 119.495 31.7039C121.147 31.7039 124.68 26.2299 124.68 23.6699C124.68 21.5299 122.047 22.9339 119.93 26.2019ZM209.468 35.9539L209.18 45.2039L203.43 45.5039L197.68 45.8039V51.2539V56.7039H203.716H209.752L209.466 66.4249L209.18 76.1459L204.18 77.9569C201.43 78.9529 198.653 79.9509 198.009 80.1749C197.137 80.4769 197.225 82.0679 198.351 86.3919C199.183 89.5889 199.999 92.3429 200.164 92.5129C200.329 92.6819 202.142 92.1199 204.194 91.2629C206.246 90.4049 208.319 89.7039 208.802 89.7039C210.181 89.7039 209.881 108.103 208.48 109.504C207.82 110.164 205.747 110.704 203.873 110.704C201.136 110.704 200.589 111.024 201.091 112.333C201.435 113.229 202.19 115.842 202.768 118.141L203.821 122.32L209.5 121.616C220.527 120.248 220.68 119.948 220.68 99.6579V84.7419L225.378 82.3549L230.076 79.9669L229.792 74.5849C229.636 71.6259 229.391 69.0859 229.247 68.9409C229.104 68.7959 227.357 69.3589 225.366 70.1909C223.374 71.0229 221.505 71.7039 221.212 71.7039C220.919 71.7039 220.68 68.3289 220.68 64.2039V56.7039H225.68H230.68V51.2589V45.8139L225.93 45.5089L221.18 45.2039L220.892 35.9539L220.605 26.7039H215.18H209.755L209.468 35.9539ZM249.811 35.1109C245.102 44.5449 239.319 51.8429 231.86 57.7629L226.54 61.9859L230.772 66.2979L235.004 70.6099L237.812 68.6099C239.356 67.5109 240.968 66.0689 241.393 65.4069C241.869 64.6679 242.362 65.5529 242.674 67.7039L243.18 71.2039L258.93 71.4789L274.68 71.7549V67.7289C274.68 65.5149 274.882 63.7039 275.13 63.7039C275.377 63.7039 277.58 65.0539 280.025 66.7039C282.47 68.3539 284.855 69.6889 285.325 69.6719C285.795 69.6539 287.617 67.5429 289.373 64.9809L292.567 60.3229L286.873 56.9289C275.512 50.1579 263.957 36.7349 265.653 32.2759C266.445 30.1909 266.084 29.9449 260.176 28.5309L253.851 27.0179L249.811 35.1109ZM347.68 45.2039V62.7039H327.68H307.68V68.1219V73.5409L320.1 73.8719C326.93 74.0549 332.831 74.5169 333.212 74.8989C334.236 75.9279 331.829 88.5549 329.681 93.4239C327.243 98.9499 320.398 105.508 313.34 109.079C310.227 110.654 307.68 112.101 307.68 112.294C307.68 113.303 314.199 121.704 314.983 121.704C315.487 121.704 318.57 120.281 321.834 118.541C336.577 110.683 343.693 99.3249 345.536 80.7039L346.18 74.2039H352.18H358.18L358.68 93.7529C359.247 115.909 359.816 117.815 366.421 119.649C368.488 120.223 374.777 120.695 380.396 120.698C396.8 120.707 400.405 117.73 400.916 103.749L401.18 96.5389L395.038 94.2079L388.896 91.8769L388.512 98.6679C388.003 107.671 387.028 108.704 379.033 108.704C373.16 108.704 372.554 108.501 371.7 106.256C371.158 104.832 371.064 97.6189 371.475 89.0059L372.18 74.2039L385.68 73.7039L399.18 73.2039L399.482 67.9749L399.783 62.7469L379.982 62.4749L360.18 62.2039L359.906 44.9539L359.633 27.7039H353.656H347.68V45.2039ZM553.68 35.2039V42.7039H549.189C544.787 42.7039 544.636 42.5939 541.594 37.2039C539.887 34.1789 538.033 31.4219 537.477 31.0779C536.92 30.7339 534.076 31.2639 531.157 32.2559L525.85 34.0599L528.221 37.5489C529.525 39.4679 530.36 41.4129 530.077 41.8709C529.794 42.3289 526.664 42.7039 523.121 42.7039H516.68V53.7039V64.7039H522.251H527.821L527.566 58.4539L527.311 52.2039L559.995 51.9399L592.68 51.6769V57.6899V63.7039H598.18H603.68V53.2039V42.7039L600.43 42.6929C598.642 42.6869 595.493 42.4029 593.43 42.0619L589.68 41.4419L591.793 38.0199C592.957 36.1389 593.744 34.4579 593.544 34.2859C593.344 34.1139 590.725 33.1709 587.725 32.1899C582.531 30.4919 582.22 30.4909 581.225 32.1589C574.765 42.9909 574.926 42.8369 570.417 42.5109L566.18 42.2039L565.886 34.9539L565.592 27.7039H559.636H553.68V35.2039ZM374.796 44.2239C371.432 50.6289 368.68 56.0079 368.68 56.1779C368.68 56.6919 376.63 59.7049 377.95 59.6919C378.627 59.6849 380.305 57.9969 381.68 55.9419C385.611 50.0639 392.656 38.2719 392.669 37.5479C392.675 37.1869 390.767 36.2219 388.43 35.4039C386.093 34.5849 383.445 33.6149 382.546 33.2469C381.251 32.7179 379.647 34.9889 374.796 44.2239ZM319.93 35.9629C317.593 37.1369 315.68 38.3889 315.68 38.7449C315.68 39.1009 318.497 44.1279 321.941 49.9169L328.202 60.4419L333.418 58.1399L338.634 55.8379L337.104 52.1769C333.852 44.3929 327.252 33.7059 325.735 33.7659C324.88 33.7999 322.267 34.7889 319.93 35.9629ZM424.68 76.7039V119.704H427.555C429.136 119.704 431.836 119.985 433.555 120.329C436.581 120.934 436.68 120.843 436.68 117.436C436.68 115.151 437.234 113.705 438.262 113.311C440.358 112.507 470.128 112.53 476.04 113.34C480.305 113.924 480.68 114.202 480.68 116.779C480.68 119.333 481.078 119.641 485.168 120.254C493.272 121.47 492.68 124.898 492.68 76.7349V33.7039H458.68H424.68V76.7039ZM480.18 56.2039V67.2039L458.93 67.4739L437.68 67.7439V56.2039V44.6639L458.93 44.9339L480.18 45.2039V56.2039ZM261.704 48.9539C263.025 50.7419 265.867 54.1169 268.02 56.4539L271.935 60.7039H259.807C253.137 60.7039 247.68 60.3319 247.68 59.8779C247.68 59.4239 248.825 57.9769 250.225 56.6609C251.626 55.3459 253.988 52.3429 255.475 49.9889C256.963 47.6339 258.433 45.7069 258.742 45.7059C259.051 45.7049 260.384 47.1659 261.704 48.9539ZM21.6805 49.1219C21.6805 51.0549 28.3495 55.0449 30.3185 54.2889C31.6345 53.7849 31.6855 53.4149 30.6155 52.1259C29.1885 50.4059 24.3695 47.7039 22.7305 47.7039C22.1525 47.7039 21.6805 48.3419 21.6805 49.1219ZM144.43 49.7749C140.778 51.6999 139.317 54.7039 142.032 54.7039C143.901 54.7039 150.088 50.4239 149.946 49.2289C149.75 47.5769 148.333 47.7169 144.43 49.7749ZM118.306 58.4539C120.167 72.3469 118.324 87.5679 113.595 97.3659C110.777 103.207 104.403 110.148 97.8005 114.568C91.8135 118.576 81.8255 123.183 80.9725 122.33C80.6905 122.047 81.6385 117.629 83.0785 112.51C86.8075 99.2639 93.5275 86.1049 100.128 79.1249C103.128 75.9519 105.353 72.9839 105.073 72.5299C103.891 70.6179 101.523 72.0619 96.1765 77.9539C89.4585 85.3559 82.7395 98.4929 79.5545 110.454C78.3465 114.992 77.0205 118.704 76.6085 118.704C76.1965 118.704 74.9345 116.791 73.8045 114.454C69.4975 105.541 70.0995 92.8499 75.3355 82.1549C80.4595 71.6919 95.2605 60.2879 110.964 54.7049C113.833 53.6849 116.485 52.8169 116.858 52.7769C117.231 52.7369 117.883 55.2909 118.306 58.4539ZM532.68 68.6879V80.7039H543.18H553.68V84.2039V87.7039H537.68H521.68V102.575V117.446L526.714 118.114C529.482 118.481 532.182 118.513 532.714 118.184C533.246 117.855 533.68 113.161 533.68 107.752C533.68 99.7069 533.968 97.8079 535.262 97.3109C536.132 96.9769 540.632 96.7039 545.262 96.7039H553.68V109.204V121.704H559.649H565.618L565.899 109.454L566.18 97.2039H576.68H587.18L587.478 101.792C587.85 107.517 586.747 108.502 579.517 108.898L573.923 109.204L576.161 114.265L578.4 119.325L586.29 118.573C593.057 117.927 594.5 117.448 596.43 115.206C598.502 112.799 598.68 111.611 598.68 100.173V87.7539L582.43 87.4789L566.18 87.2039V84.2039V81.2039L576.42 80.9189C588.501 80.5829 587.925 81.3249 587.474 66.7039L587.18 57.2039L559.93 56.9379L532.68 56.6719V68.6879ZM575.68 68.5839V72.4629L563.406 73.1709C556.655 73.5609 549.455 73.5649 547.406 73.1799C544.02 72.5449 543.68 72.1869 543.68 69.2589C543.68 67.4869 543.98 65.7369 544.347 65.3709C544.713 65.0039 551.913 64.7039 560.347 64.7039H575.68V68.5839ZM480.12 90.7039L480.18 102.204L458.93 102.474L437.68 102.744V90.7039V78.6639L458.87 78.9339L480.06 79.2039L480.12 90.7039ZM234.68 100.704V121.704H240.614C246.343 121.704 246.558 121.609 246.864 118.954L247.18 116.204H259.18H271.18L271.496 118.954C271.802 121.609 272.017 121.704 277.746 121.704H283.68V100.704V79.7039H259.18H234.68V100.704ZM12.8025 83.6079C10.3135 85.1839 12.7085 86.7039 17.6805 86.7039C22.6525 86.7039 25.0475 85.1839 22.5585 83.6079C21.8005 83.1269 19.6055 82.7349 17.6805 82.7349C15.7555 82.7349 13.5605 83.1269 12.8025 83.6079ZM149.347 83.3709C148.98 83.7369 148.68 84.6369 148.68 85.3709C148.68 86.3149 150.236 86.7039 154.013 86.7039C159.897 86.7039 161.225 86.0659 159.549 84.0459C158.414 82.6789 150.559 82.1589 149.347 83.3709ZM271.47 98.4539L271.761 106.704H259.22H246.68V98.1729V89.6419L258.93 89.9229L271.18 90.2039L271.47 98.4539ZM25.4425 117.544C22.2165 119.496 21.1725 121.572 23.0525 122.293C24.8465 122.982 31.6805 118.872 31.6805 117.105C31.6805 115.271 28.8715 115.469 25.4425 117.544ZM140.68 117.02C140.68 118.935 148.605 123.179 149.852 121.932C150.515 121.269 149.7 120.059 147.42 118.319C143.717 115.495 140.68 114.909 140.68 117.02ZM49.8385 141.82C47.6275 145.69 47.8785 148.468 50.2995 146.912C51.5725 146.094 54.6805 140.306 54.6805 138.754C54.6805 136.324 52.0125 138.014 49.8385 141.82ZM117.202 138.669C116.548 139.726 121.451 147.704 122.754 147.704C124.837 147.704 124.636 145.237 122.261 141.646C119.633 137.676 118.3 136.892 117.202 138.669ZM527.951 145.502C524.469 146.026 521.68 150.351 521.68 155.228C521.68 160.555 524.03 163.581 528.755 164.337C531.635 164.798 532.899 164.42 535.255 162.393C537.76 160.238 538.18 159.162 538.18 154.896C538.18 147.689 534.693 144.486 527.951 145.502ZM84.3475 146.371C83.0265 147.692 83.6325 156.472 85.0825 157.028C87.2335 157.853 87.6805 156.823 87.6805 151.037C87.6805 147.26 87.2915 145.704 86.3475 145.704C85.6135 145.704 84.7135 146.004 84.3475 146.371ZM196.68 154.704C196.68 160.037 197.087 163.704 197.68 163.704C198.239 163.704 198.721 160.726 198.772 156.954L198.864 150.204L201.438 155.982C202.854 159.16 204.499 161.598 205.093 161.4C205.687 161.202 207.072 158.714 208.17 155.872C209.268 153.03 210.43 150.704 210.753 150.704C211.075 150.704 211.303 153.517 211.259 156.954C211.129 167.197 213.144 165.372 213.468 154.954C213.715 146.993 213.53 145.704 212.143 145.704C211.126 145.704 209.573 147.922 207.941 151.704C205.588 157.158 203.68 159.368 203.68 156.639C203.68 154.178 199.323 145.704 198.057 145.704C196.99 145.704 196.68 147.728 196.68 154.704ZM219.68 154.645C219.68 159.563 220.13 163.864 220.68 164.204C221.32 164.6 221.68 161.381 221.68 155.263C221.68 149.557 221.277 145.704 220.68 145.704C220.088 145.704 219.68 149.351 219.68 154.645ZM227.892 154.954C228.238 166.085 229.973 167.257 230.68 156.837L231.18 149.47L235.288 156.837C237.548 160.889 240.135 164.349 241.038 164.527C242.469 164.809 242.68 163.619 242.68 155.277C242.68 149.562 242.277 145.704 241.68 145.704C241.116 145.704 240.68 148.537 240.68 152.204C240.68 155.779 240.336 158.704 239.915 158.704C239.494 158.704 237.357 155.795 235.165 152.24C232.708 148.254 230.494 145.761 229.392 145.74C227.782 145.708 227.633 146.619 227.892 154.954ZM248.892 154.954C249.057 160.262 249.606 164.204 250.18 164.204C250.754 164.204 251.303 160.262 251.468 154.954C251.712 147.081 251.521 145.704 250.18 145.704C248.839 145.704 248.648 147.081 248.892 154.954ZM257.68 155.404C257.68 166.608 259.405 167.236 259.879 156.204L260.18 149.204L262.505 155.512C263.847 159.155 265.327 161.658 266.005 161.435C266.651 161.222 268.08 158.609 269.18 155.626L271.18 150.204L271.476 156.954C271.699 162.058 272.126 163.704 273.226 163.704C274.39 163.704 274.68 161.912 274.68 154.704C274.68 146.782 274.469 145.704 272.921 145.704C271.66 145.704 270.494 147.566 268.802 152.285C267.504 155.904 266.11 158.492 265.705 158.035C265.3 157.578 263.921 154.617 262.64 151.454C259.093 142.693 257.68 143.818 257.68 155.404ZM283.798 147.954C283.34 149.192 282.001 152.808 280.823 155.992C279.644 159.175 278.68 162.212 278.68 162.742C278.68 164.6 280.371 163.678 281.498 161.204C282.397 159.23 283.374 158.704 286.14 158.704C289.014 158.704 289.751 159.14 290.251 161.132C290.586 162.467 291.545 163.822 292.382 164.143C293.338 164.51 293.737 164.259 293.455 163.465C293.209 162.772 291.731 158.492 290.17 153.954C287.278 145.542 285.359 143.735 283.798 147.954ZM297.892 154.954L298.18 164.204L302.035 164.521C307.874 165 310.206 163.45 304.68 162.763L300.18 162.204L299.89 153.954C299.727 149.331 299.161 145.704 298.602 145.704C297.99 145.704 297.716 149.28 297.892 154.954ZM312.68 154.645C312.68 159.563 313.13 163.864 313.68 164.204C314.32 164.6 314.68 161.381 314.68 155.263C314.68 149.557 314.277 145.704 313.68 145.704C313.088 145.704 312.68 149.351 312.68 154.645ZM321.88 146.904C319.609 149.175 320.494 152.695 323.79 154.501C325.5 155.437 327.848 156.94 329.007 157.839C330.856 159.273 330.942 159.684 329.704 161.175C328.413 162.731 325.713 162.882 322.03 161.603C321.398 161.384 320.833 161.654 320.775 162.204C320.587 164.002 326.549 164.876 329.465 163.478C331.522 162.493 332.18 161.453 332.18 159.191C332.18 156.613 331.53 155.893 327.43 153.935C324.818 152.687 322.68 151.021 322.68 150.234C322.68 148.05 325.671 146.841 328.832 147.748C330.384 148.193 331.882 148.187 332.161 147.735C333.444 145.658 323.897 144.887 321.88 146.904ZM335.68 146.704C335.68 147.254 337.03 147.704 338.68 147.704H341.68V156.204C341.68 161.094 342.097 164.704 342.661 164.704C344.283 164.704 344.967 159.954 344.253 153.647L343.581 147.704H346.63C348.308 147.704 349.68 147.254 349.68 146.704C349.68 146.133 346.68 145.704 342.68 145.704C338.68 145.704 335.68 146.133 335.68 146.704ZM361.68 155.204V164.704H367.18C373.634 164.704 374.628 162.96 368.43 162.511C364.441 162.223 364.161 162.005 363.867 158.954C363.56 155.769 363.635 155.704 367.617 155.704C369.851 155.704 371.68 155.254 371.68 154.704C371.68 154.154 369.88 153.704 367.68 153.704C363.902 153.704 363.68 153.537 363.68 150.704C363.68 147.815 363.847 147.704 368.18 147.704C370.655 147.704 372.68 147.254 372.68 146.704C372.68 146.154 370.205 145.704 367.18 145.704H361.68V155.204ZM375.874 146.818C376.156 147.58 377.413 151.354 378.667 155.204C381.139 162.796 382.556 165.233 383.779 163.996C384.906 162.858 390.644 146.334 390.101 145.792C389.195 144.886 387.884 147.337 385.701 154.018C384.476 157.766 383.183 160.547 382.827 160.2C382.471 159.852 381.276 156.597 380.171 152.966C379.066 149.335 377.532 146.155 376.761 145.898C375.886 145.606 375.553 145.95 375.874 146.818ZM394.892 154.954L395.18 164.204L400.43 164.506C403.629 164.69 405.68 164.397 405.68 163.756C405.68 163.176 403.662 162.704 401.18 162.704C396.704 162.704 396.68 162.685 396.68 159.204C396.68 155.871 396.847 155.704 400.18 155.704C402.105 155.704 403.68 155.254 403.68 154.704C403.68 154.154 402.105 153.704 400.18 153.704C396.958 153.704 396.68 153.466 396.68 150.704C396.68 147.815 396.847 147.704 401.18 147.704C403.655 147.704 405.68 147.254 405.68 146.704C405.68 146.154 403.188 145.704 400.142 145.704H394.605L394.892 154.954ZM410.892 154.954C411.064 160.464 411.584 164.111 412.18 163.975C412.73 163.849 413.32 162.161 413.49 160.225C413.921 155.339 416.666 155.555 419.56 160.704C420.796 162.904 422.229 164.704 422.744 164.704C424.129 164.704 423.889 163.231 421.956 159.862C420.323 157.017 420.323 156.756 421.956 154.952C424.285 152.378 424.175 148.039 421.746 146.739C420.682 146.17 417.74 145.704 415.208 145.704H410.605L410.892 154.954ZM426.697 146.454C426.706 146.867 428.049 149.454 429.68 152.204C431.533 155.327 432.652 158.612 432.663 160.954C432.672 163.017 433.13 164.704 433.68 164.704C434.23 164.704 434.68 162.984 434.68 160.882C434.68 158.511 435.848 154.902 437.755 151.382C439.996 147.245 440.444 145.704 439.407 145.704C438.624 145.704 437.172 147.504 436.18 149.704C435.188 151.904 434.077 153.704 433.712 153.704C433.347 153.704 432.037 151.904 430.8 149.704C428.792 146.13 426.651 144.435 426.697 146.454ZM444.892 154.954L445.18 164.204L449.68 163.997C455.498 163.73 458.68 160.408 458.68 154.603C458.68 148.878 455.294 145.704 449.188 145.704H444.605L444.892 154.954ZM464.833 154.429C461.391 164.051 461.248 164.704 462.582 164.704C463.078 164.704 463.955 163.354 464.53 161.704C465.431 159.119 466.075 158.704 469.18 158.704C472.285 158.704 472.929 159.119 473.83 161.704C474.887 164.737 476.68 165.803 476.68 163.398C476.68 160.427 470.782 146.181 469.439 145.91C468.426 145.705 467.028 148.291 464.833 154.429ZM480.666 151.675C482.348 155.009 483.68 159.232 483.68 161.235C483.68 163.372 484.084 164.572 484.68 164.204C485.23 163.864 485.688 162.15 485.698 160.395C485.708 158.64 487.058 154.77 488.698 151.794C492.048 145.717 492.052 145.704 490.7 145.704C490.162 145.704 488.802 147.504 487.68 149.704C486.558 151.904 485.267 153.704 484.812 153.704C484.356 153.704 483.172 151.904 482.18 149.704C481.188 147.504 479.763 145.704 479.014 145.704C478.048 145.704 478.529 147.444 480.666 151.675ZM504.854 148.018C503.276 149.698 502.68 151.587 502.68 154.908C502.68 161.381 505.016 163.976 510.96 164.104C516.745 164.229 518.135 162.944 517.26 158.279C516.653 155.043 516.285 154.71 513.385 154.767C510.462 154.825 510.378 154.91 512.43 155.735C514.07 156.394 514.68 157.462 514.68 159.672C514.68 162.358 514.346 162.704 511.753 162.704C505.469 162.704 502.449 153.844 507.135 149.159C509.753 146.54 511.306 146.181 513.633 147.653C514.432 148.159 515.493 148.32 515.99 148.013C517.515 147.07 514.381 145.735 510.604 145.719C508.146 145.709 506.349 146.427 504.854 148.018ZM545.782 147.602C539.421 153.963 545.096 166.323 553.417 164.234C557.644 163.173 559.68 160.13 559.68 154.878C559.68 151.127 559.165 149.569 557.366 147.878C554.398 145.091 548.436 144.948 545.782 147.602ZM565.68 154.597C565.68 164.524 566.195 165.261 572.332 164.11C576.784 163.274 579.68 159.497 579.68 154.524C579.68 148.898 576.256 145.704 570.225 145.704H565.68V154.597ZM585.88 146.904C583.849 148.935 584.494 152.544 587.18 154.181C588.555 155.019 590.814 156.394 592.198 157.238C594.335 158.541 594.547 159.084 593.608 160.839C592.482 162.943 589.705 163.059 585.294 161.186C583.895 160.593 583.528 160.75 583.87 161.795C584.125 162.57 585.955 163.613 587.938 164.114C592.821 165.346 596.945 162.828 596.49 158.891C596.251 156.823 595.144 155.707 591.68 154.045C585.699 151.177 585.458 148.277 591.18 148.035C597.187 147.782 597.297 147.749 595.68 146.704C593.571 145.341 587.315 145.469 585.88 146.904ZM420.48 148.904C421.14 149.564 421.68 150.432 421.68 150.833C421.68 152.426 418.401 154.704 416.109 154.704C414 154.704 413.68 154.243 413.68 151.204C413.68 148.037 413.947 147.704 416.48 147.704C418.02 147.704 419.82 148.244 420.48 148.904ZM455.123 149.927C455.979 151.149 456.68 153.419 456.68 154.972C456.68 158.576 452.463 162.955 449.409 162.521C447.37 162.231 447.155 161.585 446.886 154.954L446.592 147.704H450.079C452.549 147.704 454.021 148.352 455.123 149.927ZM534.216 149.107C537.12 151.23 536.867 158.325 533.797 160.811C530.769 163.263 528.445 163.207 526.108 160.624C523.886 158.169 523.584 151.731 525.576 149.33C527.234 147.333 531.634 147.219 534.216 149.107ZM556.285 150.223C559.426 155.017 556.473 162.704 551.49 162.704C546.843 162.704 543.954 154.798 546.715 149.638C548.315 146.648 554.177 147.006 556.285 150.223ZM575.68 149.704C579.84 153.864 577.017 161.568 571.18 161.988L568.18 162.204L567.886 154.954L567.592 147.704H570.636C572.347 147.704 574.556 148.58 575.68 149.704ZM288.604 155.954C288.646 156.367 287.344 156.704 285.711 156.704C283.769 156.704 282.895 156.272 283.182 155.454C283.423 154.767 284.136 152.854 284.766 151.204L285.912 148.204L287.22 151.704C287.939 153.629 288.562 155.541 288.604 155.954ZM471.635 155.454C471.66 156.142 470.555 156.704 469.18 156.704C466.334 156.704 466.228 156.298 467.861 151.615L469.042 148.228L470.316 151.216C471.016 152.859 471.61 154.767 471.635 155.454Z" fill="black"/>
</svg>
